<svg width="13" height="13" viewBox="0 0 13 13" fill="none" xmlns="http://www.w3.org/2000/svg">
<path id="Vector" d="M2.61092 2.61092L2.61093 2.61091C3.64233 1.57945 5.0413 1 6.5 1C7.95878 1 9.35761 1.57944 10.3891 2.61092L10.3891 2.61093C11.4206 3.64233 12 5.04121 12 6.5C12 7.95878 11.4206 9.35761 10.3891 10.3891L10.3891 10.3891C9.35767 11.4206 7.95879 12 6.5 12C5.04122 12 3.64239 11.4206 2.61092 10.3891L2.61091 10.3891C1.57945 9.35767 1 7.95879 1 6.5C1 5.04122 1.57944 3.64239 2.61092 2.61092ZM2.6752 10.3247L2.67525 10.3247C3.68965 11.339 5.06539 11.9089 6.5 11.9089C7.93458 11.9089 9.31032 11.339 10.3247 10.3247L10.3248 10.3247C11.3391 9.31028 11.909 7.93451 11.909 6.49994C11.909 5.06536 11.3391 3.68962 10.3248 2.67519L10.3248 2.67515C9.31035 1.66084 7.93458 1.09095 6.5 1.09095C5.06542 1.09095 3.68969 1.66085 2.67525 2.67514L2.67521 2.67518C1.66091 3.68959 1.09102 5.06536 1.09102 6.49994C1.09102 7.93452 1.66091 9.31025 2.6752 10.3247Z" stroke="#EC6276"/>
</svg>
