<svg width="7" height="7" viewBox="0 0 7 7" fill="none" xmlns="http://www.w3.org/2000/svg">
<path id="Vector" d="M4 1.35869C4.39788 1.35869 4.77934 1.49405 5.06071 1.73495C5.34196 1.97594 5.5 2.30268 5.5 2.64348H6.5C6.50089 1.92911 6.08571 1.26136 5.39308 0.863221C4.70046 0.465156 3.82177 0.389169 3.05023 0.660562C2.27869 0.931958 1.71597 1.51508 1.55 2.21521H0.5V3.07174H1.5V3.92826H0.5V4.78479H1.55C1.71596 5.48492 2.27869 6.06807 3.05023 6.33944C3.82177 6.61084 4.70046 6.53484 5.39308 6.13678C6.08571 5.73862 6.50088 5.07089 6.5 4.35652H5.5C5.49632 4.76147 5.26998 5.14125 4.88917 5.3813C4.50836 5.62135 4.01774 5.69361 3.56517 5.57621C3.11271 5.45873 2.75123 5.16545 2.58994 4.78478H3.5V3.92825H2.5V3.07173H3.5V2.2152H2.58994C2.69318 1.96531 2.88403 1.74878 3.13649 1.59546C3.38894 1.44213 3.69051 1.35945 4 1.35869Z" fill="#364A6F"/>
</svg>
